<?xml version="1.0" encoding="UTF-8"?>
<!DOCTYPE svg PUBLIC "-//W3C//DTD SVG 1.1//EN" "http://www.w3.org/Graphics/SVG/1.1/DTD/svg11.dtd">
<!-- Creator: CorelDRAW X7 -->
<svg xmlns="http://www.w3.org/2000/svg" xml:space="preserve" width="93px" height="64px" version="1.1" style="shape-rendering:geometricPrecision; text-rendering:geometricPrecision; image-rendering:optimizeQuality; fill-rule:evenodd; clip-rule:evenodd"
viewBox="0 0 93 64"
 xmlns:xlink="http://www.w3.org/1999/xlink">
 <defs>
  <style type="text/css">
   <![CDATA[
    .fil0 {fill:white}
   ]]>
  </style>
 </defs>
 <g id="Capa_x0020_1">
  <metadata id="CorelCorpID_0Corel-Layer"/>
  <path class="fil0" d="M20 37c1,1 0,2 -2,2 -3,0 -7,0 -10,1 -6,2 -8,-1 -7,-7 4,-11 9,-20 15,-28 3,-6 5,-6 5,-2 0,2 -1,5 -4,9 -6,12 -10,20 -12,24 7,-3 12,-3 15,1zm32 6c2,-1 3,-3 3,-5 -8,5 -13,3 -11,-7 0,-3 3,-7 7,-11 8,-7 12,-8 14,-2 3,-5 4,-5 5,1 -1,3 -4,9 -10,21 4,-3 8,-5 10,-8 0,-3 1,-6 3,-10 6,-9 12,-10 16,-5 1,2 2,4 2,7 2,1 2,2 -1,3 -1,5 -4,9 -7,12 -3,2 -6,2 -9,1 -2,-2 -3,-3 -3,-5 -3,2 -7,5 -12,7 -3,7 -6,12 -9,17 -2,2 -3,4 -6,5 -6,0 -5,-10 -3,-14 2,-3 6,-5 11,-7zm-3 -5c-3,0 -1,-5 3,-12 5,-6 8,-9 11,-8 1,2 0,6 -5,12 -4,7 -7,10 -9,8zm-5 22c-2,0 -1,-5 -1,-6 1,-3 5,-6 9,-9 0,3 -2,6 -5,10 0,1 -3,5 -3,5zm37 -41c1,3 3,5 5,7 -1,2 -2,5 -3,7 -1,2 -5,7 -8,5 -3,-2 0,-8 1,-11 2,-3 3,-6 5,-8zm6 5c-2,-2 -3,-4 -2,-6 2,-1 3,1 2,6zm-52 15c-3,2 -6,2 -9,1 -4,-4 -4,-10 -1,-18 7,-9 12,-10 17,-5 1,2 1,4 1,7 2,1 2,2 0,3 -2,5 -4,9 -8,12zm-1 -20c1,3 2,5 4,7 0,2 -1,5 -3,7 -1,2 -5,7 -8,5 -2,-2 0,-8 1,-11 2,-3 4,-6 6,-8zm5 5c-2,-2 -2,-4 -1,-6 2,-1 2,1 1,6z"/>
 </g>
</svg>
